<svg width="256" height="256" viewBox="0 0 256 256" fill="none" xmlns="http://www.w3.org/2000/svg">
<rect width="256" height="256" rx="40" fill="#110119"/>
<path d="M120.573 118.001C120.573 144.669 98.9547 166.287 72.2871 166.287C45.6193 166.287 24.0003 144.669 24 118.001V69.7139H61.1562V118C61.1565 124.154 66.1458 129.143 72.2998 129.143C78.4536 129.142 83.4422 124.154 83.4424 118V69.7139H120.573V118.001Z" fill="white"/>
<path d="M180.001 62.2842C207.259 62.2842 228.288 83.0876 228.288 110.57C228.288 138.053 207.259 158.857 180.001 158.857H165.144C154 158.857 154 173.715 165.144 173.715H202.287C217.976 173.715 231.639 182.713 231.994 199.715C232.164 207.858 227.274 217.544 224.573 225.716H187.43L194.858 207.144H165.144C146.428 207.144 128 200.028 128 177.429C128 165.339 135.905 151.52 146.572 147.714C137.24 138.663 131.715 124.658 131.715 110.57C131.715 83.09 152.743 62.2842 180.001 62.2842ZM180.014 95.7129C171.808 95.7129 165.156 102.365 165.156 110.57C165.156 118.776 171.808 125.428 180.014 125.428C188.219 125.428 194.871 118.776 194.871 110.57C194.871 102.365 188.219 95.7129 180.014 95.7129Z" fill="white"/>
</svg>
